{"asset":{"version":"2.0","generator":"Babylon2Gltf2017","copyright":"2017 (c) BabylonJS"},"extensionsUsed":[],"extensionsRequired":[],"scene":0,"scenes":[{"nodes":[0,1,2]}],"nodes":[{"translation":[-362.217773,941.5698,164.535889],"rotation":[0.0,0.0,0.0,-1.0],"scale":[1.0,1.0,1.0],"name":"Camera001.Target"},{"mesh":0,"translation":[0.0,0.0,0.0],"rotation":[-0.7071068,0.0,0.0,-0.7071067],"scale":[1.0,1.0,1.0],"name":"TrainPart"},{"camera":0,"translation":[11142.332,13989.8223,-12607.6279],"rotation":[0.159379154,0.836192966,-0.415077776,0.321076542],"scale":[1.0,1.0,1.0],"name":"Camera001"}],"cameras":[{"perspective":{"yfov":0.6024157,"zfar":10000.0,"znear":0.1},"type":"perspective","name":"Camera001"}],"meshes":[{"primitives":[{"attributes":{"POSITION":1,"NORMAL":2,"TEXCOORD_0":3},"indices":0,"mode":4,"material":0}],"name":"TrainPart"}],"accessors":[{"bufferView":0,"componentType":5123,"count":16644,"type":"SCALAR","name":"accessorIndices"},{"bufferView":1,"componentType":5126,"count":16644,"max":[1141.7323,1141.7323,196.850388],"min":[-1141.7323,-1141.7323,-1515.748],"type":"VEC3","name":"accessorPositions"},{"bufferView":1,"byteOffset":199728,"componentType":5126,"count":16644,"type":"VEC3","name":"accessorNormals"},{"bufferView":2,"componentType":5126,"count":16644,"type":"VEC2","name":"accessorUVs"}],"bufferViews":[{"buffer":0,"byteLength":33288,"name":"bufferViewScalar"},{"buffer":0,"byteOffset":33288,"byteLength":399456,"byteStride":12,"name":"bufferViewFloatVec3"},{"buffer":0,"byteOffset":432744,"byteLength":133152,"byteStride":8,"name":"bufferViewFloatVec2"}],"buffers":[{"uri":"TransportCart.bin","byteLength":565896}],"materials":[{"pbrMetallicRoughness":{"baseColorFactor":[1.0,1.0,1.0,1.0],"baseColorTexture":{"index":0},"metallicFactor":0.0,"roughnessFactor":0.9},"emissiveFactor":[0.0,0.0,0.0],"alphaMode":"OPAQUE","name":"Standard"}],"textures":[{"sampler":0,"source":0,"name":"Standard_baseColor.jpg"}],"images":[{"uri":"Standard_baseColor.jpg"}],"samplers":[{"magFilter":9729,"minFilter":9987,"wrapS":10497,"wrapT":10497}]}