{"asset":{"version":"2.0","generator":"Babylon2Gltf2017","copyright":"2017 (c) BabylonJS"},"extensionsUsed":[],"extensionsRequired":[],"scene":0,"scenes":[{"nodes":[0]}],"nodes":[{"children":[1],"translation":[33.2821465,72.24578,-0.461700946],"rotation":[-0.6119688,0.674107969,0.2590644,0.3224256],"scale":[1.0,1.0,0.99999994],"name":"LowerArm"},{"mesh":0,"translation":[-28.40429,-48.2007027,-1.31432724],"rotation":[-0.7071068,-1.24659782E-09,-1.24659782E-09,-0.7071067],"scale":[540.951355,540.9513,540.9513],"name":"Arm001"}],"meshes":[{"primitives":[{"attributes":{"POSITION":1,"NORMAL":2,"TEXCOORD_0":3},"indices":0,"mode":4,"material":0}],"name":"Arm001"}],"accessors":[{"bufferView":0,"componentType":5123,"count":4710,"type":"SCALAR","name":"accessorIndices"},{"bufferView":1,"componentType":5126,"count":4710,"max":[0.0540215969,0.0376344621,-0.09620479],"min":[0.0206590369,7.709861E-05,-0.105751917],"type":"VEC3","name":"accessorPositions"},{"bufferView":1,"byteOffset":56520,"componentType":5126,"count":4710,"type":"VEC3","name":"accessorNormals"},{"bufferView":2,"componentType":5126,"count":4710,"type":"VEC2","name":"accessorUVs"}],"bufferViews":[{"buffer":0,"byteLength":9420,"name":"bufferViewScalar"},{"buffer":0,"byteOffset":9420,"byteLength":113040,"byteStride":12,"name":"bufferViewFloatVec3"},{"buffer":0,"byteOffset":122460,"byteLength":37680,"byteStride":8,"name":"bufferViewFloatVec2"}],"buffers":[{"uri":"KennyLowerArm.bin","byteLength":160140}],"materials":[{"pbrMetallicRoughness":{"baseColorFactor":[1.0,1.0,1.0,1.0],"baseColorTexture":{"index":0},"metallicFactor":0.0,"roughnessFactor":0.9},"emissiveFactor":[0.0,0.0,0.0],"alphaMode":"OPAQUE","name":"Skin"}],"textures":[{"sampler":0,"source":0,"name":"Skin_baseColor.jpg"}],"images":[{"uri":"Skin_baseColor.jpg"}],"samplers":[{"magFilter":9729,"minFilter":9987,"wrapS":10497,"wrapT":10497}]}