{"asset":{"version":"2.0","generator":"Babylon2Gltf2017","copyright":"2017 (c) BabylonJS"},"extensionsUsed":[],"extensionsRequired":[],"scene":0,"scenes":[{"nodes":[0,1,2,3]}],"nodes":[{"mesh":0,"translation":[0.185171813,0.406806946,-1.45389462],"rotation":[-0.7071068,0.0,0.0,-0.707106769],"scale":[540.9513,540.9513,540.9513],"name":"hair"},{"mesh":1,"translation":[0.185171813,0.406806946,-1.45389462],"rotation":[-0.7071068,0.0,0.0,-0.707106769],"scale":[540.9513,540.9513,540.9513],"name":"skin"},{"mesh":2,"translation":[0.185171813,0.406806946,-1.45389462],"rotation":[-0.7071068,0.0,0.0,-0.707106769],"scale":[540.9513,540.9513,540.9513],"name":"clothes"},{"children":[4],"translation":[33.2821465,72.24578,-0.461700946],"rotation":[-0.6119688,0.674107969,0.2590644,0.3224256],"scale":[1.0,1.0,0.99999994],"name":"Group001"},{"mesh":3,"translation":[-28.40429,-48.2007027,-1.31432724],"rotation":[-0.7071068,-1.24659782E-09,-1.24659782E-09,-0.7071067],"scale":[540.951355,540.9513,540.9513],"name":"Arm"}],"meshes":[{"primitives":[{"attributes":{"POSITION":1,"NORMAL":2,"TEXCOORD_0":3},"indices":0,"mode":4,"material":0}],"name":"hair"},{"primitives":[{"attributes":{"POSITION":5,"NORMAL":6,"TEXCOORD_0":7},"indices":4,"mode":4,"material":1}],"name":"skin"},{"primitives":[{"attributes":{"POSITION":9,"NORMAL":10,"TEXCOORD_0":11},"indices":8,"mode":4,"material":2}],"name":"clothes"},{"primitives":[{"attributes":{"POSITION":13,"NORMAL":14,"TEXCOORD_0":15},"indices":12,"mode":4,"material":1}],"name":"Arm"}],"accessors":[{"bufferView":0,"componentType":5123,"count":8100,"type":"SCALAR","name":"accessorIndices"},{"bufferView":1,"componentType":5126,"count":8100,"max":[0.0118407989,0.0109349,-0.1556625],"min":[-0.0118408,-0.009627599,-0.1847109],"type":"VEC3","name":"accessorPositions"},{"bufferView":1,"byteOffset":97200,"componentType":5126,"count":8100,"type":"VEC3","name":"accessorNormals"},{"bufferView":2,"componentType":5126,"count":8100,"type":"VEC2","name":"accessorUVs"},{"bufferView":0,"byteOffset":16200,"componentType":5123,"count":7158,"type":"SCALAR","name":"accessorIndices"},{"bufferView":1,"byteOffset":194400,"componentType":5126,"count":7158,"max":[0.0127418,0.0121984994,-0.0571035],"min":[-0.0236023981,-0.007924299,-0.182646],"type":"VEC3","name":"accessorPositions"},{"bufferView":1,"byteOffset":280296,"componentType":5126,"count":7158,"type":"VEC3","name":"accessorNormals"},{"bufferView":2,"byteOffset":64800,"componentType":5126,"count":7158,"type":"VEC2","name":"accessorUVs"},{"bufferView":0,"byteOffset":30516,"componentType":5123,"count":8400,"type":"SCALAR","name":"accessorIndices"},{"bufferView":1,"byteOffset":366192,"componentType":5126,"count":8400,"max":[0.0323034637,0.0198967,-0.00273029972],"min":[-0.0246341974,-0.0090216,-0.1441821],"type":"VEC3","name":"accessorPositions"},{"bufferView":1,"byteOffset":466992,"componentType":5126,"count":8400,"type":"VEC3","name":"accessorNormals"},{"bufferView":2,"byteOffset":122064,"componentType":5126,"count":8400,"type":"VEC2","name":"accessorUVs"},{"bufferView":0,"byteOffset":47316,"componentType":5123,"count":192,"type":"SCALAR","name":"accessorIndices"},{"bufferView":1,"byteOffset":567792,"componentType":5126,"count":192,"max":[0.0558491871,0.004572347,-0.0990551561],"min":[0.04975851,-0.00188820064,-0.120936304],"type":"VEC3","name":"accessorPositions"},{"bufferView":1,"byteOffset":570096,"componentType":5126,"count":192,"type":"VEC3","name":"accessorNormals"},{"bufferView":2,"byteOffset":189264,"componentType":5126,"count":192,"type":"VEC2","name":"accessorUVs"}],"bufferViews":[{"buffer":0,"byteLength":47700,"name":"bufferViewScalar"},{"buffer":0,"byteOffset":47700,"byteLength":572400,"byteStride":12,"name":"bufferViewFloatVec3"},{"buffer":0,"byteOffset":620100,"byteLength":190800,"byteStride":8,"name":"bufferViewFloatVec2"}],"buffers":[{"uri":"KennyBaseModel.bin","byteLength":810900}],"materials":[{"pbrMetallicRoughness":{"baseColorFactor":[0.0,0.0,0.0,1.0],"metallicFactor":0.0,"roughnessFactor":0.9},"emissiveFactor":[0.0,0.0,0.0],"alphaMode":"OPAQUE","name":"Black"},{"pbrMetallicRoughness":{"baseColorFactor":[1.0,1.0,1.0,1.0],"baseColorTexture":{"index":0},"metallicFactor":0.0,"roughnessFactor":0.9},"emissiveFactor":[0.0,0.0,0.0],"alphaMode":"OPAQUE","name":"Skin"},{"pbrMetallicRoughness":{"baseColorFactor":[1.0,1.0,1.0,1.0],"baseColorTexture":{"index":1},"metallicFactor":0.0,"roughnessFactor":0.9},"emissiveFactor":[0.0,0.0,0.0],"alphaMode":"OPAQUE","name":"Clothes"}],"textures":[{"sampler":0,"source":0,"name":"Skin_baseColor.jpg"},{"sampler":1,"source":1,"name":"Clothes_baseColor.jpg"}],"images":[{"uri":"Skin_baseColor.jpg"},{"uri":"Clothes_baseColor.jpg"}],"samplers":[{"magFilter":9729,"minFilter":9987,"wrapS":10497,"wrapT":10497},{"magFilter":9729,"minFilter":9987,"wrapS":10497,"wrapT":10497}]}