{"asset":{"version":"2.0","generator":"Babylon2Gltf2017","copyright":"2017 (c) BabylonJS"},"extensionsUsed":[],"extensionsRequired":[],"scene":0,"scenes":[{"nodes":[0,1,2]}],"nodes":[{"translation":[-362.217773,941.5698,164.535889],"rotation":[0.0,0.0,0.0,-1.0],"scale":[1.0,1.0,1.0],"name":"Camera001.Target"},{"mesh":0,"translation":[0.0,0.0,0.0],"rotation":[-0.7071068,0.0,0.0,-0.7071067],"scale":[1.0,1.0,1.0],"name":"TrainPart"},{"camera":0,"translation":[11142.332,13989.8223,-12607.6279],"rotation":[0.159379154,0.836192966,-0.415077776,0.321076542],"scale":[1.0,1.0,1.0],"name":"Camera001"}],"cameras":[{"perspective":{"yfov":0.6024157,"zfar":10000.0,"znear":0.1},"type":"perspective","name":"Camera001"}],"meshes":[{"primitives":[{"attributes":{"POSITION":1,"NORMAL":2,"TEXCOORD_0":3},"indices":0,"mode":4,"material":0},{"attributes":{"POSITION":5,"NORMAL":6,"TEXCOORD_0":7},"indices":4,"mode":4,"material":1},{"attributes":{"POSITION":9,"NORMAL":10,"TEXCOORD_0":11},"indices":8,"mode":4,"material":2}],"name":"TrainPart"}],"accessors":[{"bufferView":0,"componentType":5123,"count":10053,"type":"SCALAR","name":"accessorIndices"},{"bufferView":1,"componentType":5126,"count":10053,"max":[1141.7323,1141.7323,-39.37008],"min":[-1141.7323,-1141.7323,-1515.748],"type":"VEC3","name":"accessorPositions"},{"bufferView":1,"byteOffset":120636,"componentType":5126,"count":10053,"type":"VEC3","name":"accessorNormals"},{"bufferView":2,"componentType":5126,"count":10053,"type":"VEC2","name":"accessorUVs"},{"bufferView":0,"byteOffset":20108,"componentType":5123,"count":5031,"type":"SCALAR","name":"accessorIndices"},{"bufferView":1,"byteOffset":241272,"componentType":5126,"count":5031,"max":[1102.36218,1102.36218,0.0],"min":[-1102.36218,-1087.16565,-1401.01526],"type":"VEC3","name":"accessorPositions"},{"bufferView":1,"byteOffset":301644,"componentType":5126,"count":5031,"type":"VEC3","name":"accessorNormals"},{"bufferView":2,"byteOffset":80424,"componentType":5126,"count":5031,"type":"VEC2","name":"accessorUVs"},{"bufferView":0,"byteOffset":30172,"componentType":5123,"count":1560,"type":"SCALAR","name":"accessorIndices"},{"bufferView":1,"byteOffset":362016,"componentType":5126,"count":1560,"max":[196.850388,196.850388,196.850388],"min":[-196.850388,-196.850388,0.0],"type":"VEC3","name":"accessorPositions"},{"bufferView":1,"byteOffset":380736,"componentType":5126,"count":1560,"type":"VEC3","name":"accessorNormals"},{"bufferView":2,"byteOffset":120672,"componentType":5126,"count":1560,"type":"VEC2","name":"accessorUVs"}],"bufferViews":[{"buffer":0,"byteLength":33292,"name":"bufferViewScalar"},{"buffer":0,"byteOffset":33292,"byteLength":399456,"byteStride":12,"name":"bufferViewFloatVec3"},{"buffer":0,"byteOffset":432748,"byteLength":133152,"byteStride":8,"name":"bufferViewFloatVec2"}],"buffers":[{"uri":"TransportCart.bin","byteLength":565900}],"materials":[{"pbrMetallicRoughness":{"baseColorFactor":[0.75000006,0.0,0.0,1.0],"metallicFactor":0.0,"roughnessFactor":0.549999952},"emissiveFactor":[0.0,0.0,0.0],"alphaMode":"OPAQUE","name":"Material #26"},{"pbrMetallicRoughness":{"baseColorFactor":[0.0411764756,0.07352942,0.75000006,1.0],"metallicFactor":0.0,"roughnessFactor":0.549999952},"emissiveFactor":[0.0,0.0,0.0],"alphaMode":"OPAQUE","name":"Material #26"},{"pbrMetallicRoughness":{"baseColorFactor":[0.75000006,0.6882354,0.0,1.0],"metallicFactor":0.0,"roughnessFactor":0.549999952},"emissiveFactor":[0.0,0.0,0.0],"alphaMode":"OPAQUE","name":"Material #26"}]}